<?xml version="1.0" encoding="UTF-8" standalone="no"?>
<!DOCTYPE svg PUBLIC "-//W3C//DTD SVG 1.1//EN" "http://www.w3.org/Graphics/SVG/1.1/DTD/svg11.dtd">
<svg version="1.1" xmlns="http://www.w3.org/2000/svg" xmlns:xlink="http://www.w3.org/1999/xlink" preserveAspectRatio="xMidYMid meet" viewBox="0 0 640 640" width="640" height="640"><defs><path d="M62.3 109.57C62.3 123.92 73.79 135.57 87.94 135.57C102.09 135.57 113.58 123.92 113.58 109.57C113.58 95.22 102.09 83.57 87.94 83.57C73.79 83.57 62.3 95.22 62.3 109.57Z" id="b22o5Romgt"></path><path d="M109.79 121.36L293.54 227.47L289.53 234.42L105.77 128.31L109.79 121.36Z" id="d3hm0xOJ9R"></path><path d="M337.81 252.78L402.1 289.91L398.09 296.86L333.79 259.73L337.81 252.78Z" id="dMhcU5ZDh"></path><path d="M313.09 531.24C298.74 531.26 287.08 519.78 287.06 505.63C287.05 491.48 298.69 479.98 313.04 479.97C327.39 479.95 339.05 491.43 339.07 505.57C339.08 519.72 327.44 531.23 313.09 531.24Z" id="fdUlEFlcq"></path><path d="M316.98 267.77L317.21 479.96L309.18 479.97L308.95 267.78L316.98 267.77Z" id="a15925yaJ4"></path><path d="M522.41 128.33L338.65 234.43L334.63 227.47L518.4 121.38L522.41 128.33Z" id="a1cg2zBiWV"></path><path d="M293.54 262.12L229.24 299.24L225.22 292.29L289.53 255.17L293.54 262.12Z" id="aJ7nT1MWQ"></path><path d="M317.21 143.17L317.2 217.42L309.17 217.42L309.18 143.17L317.21 143.17Z" id="a7MwzE4Vvi"></path><path d="M111.29 362.66C111.29 368.84 106.06 373.87 99.62 373.87C93.17 373.87 87.94 368.84 87.94 362.66C87.94 356.47 93.17 351.45 99.62 351.45C106.06 351.45 111.29 356.47 111.29 362.66Z" id="b2yOK23SKy"></path><path d="M540.45 362.66C540.45 368.84 535.22 373.87 528.77 373.87C522.33 373.87 517.1 368.84 517.1 362.66C517.1 356.47 522.33 351.45 528.77 351.45C535.22 351.45 540.45 356.47 540.45 362.66Z" id="a6lYIGW1SM"></path><path d="M324.87 94.77C324.87 100.96 319.64 105.98 313.19 105.98C306.75 105.98 301.52 100.96 301.52 94.77C301.52 88.59 306.75 83.57 313.19 83.57C319.64 83.57 324.87 88.59 324.87 94.77Z" id="h23JxcIhiV"></path><path d="M514.81 109.57C514.81 123.92 526.3 135.57 540.45 135.57C554.6 135.57 566.09 123.92 566.09 109.57C566.09 95.22 554.6 83.57 540.45 83.57C526.3 83.57 514.81 95.22 514.81 109.57Z" id="c4VCtoNrJ6"></path></defs><g><g><g><use xlink:href="#b22o5Romgt" opacity="1" fill="#ead462" fill-opacity="1"></use></g><g><use xlink:href="#d3hm0xOJ9R" opacity="1" fill="#ead962" fill-opacity="1"></use></g><g><use xlink:href="#dMhcU5ZDh" opacity="1" fill="#ead962" fill-opacity="1"></use></g><g><use xlink:href="#fdUlEFlcq" opacity="1" fill="#ead462" fill-opacity="1"></use></g><g><use xlink:href="#a15925yaJ4" opacity="1" fill="#ead962" fill-opacity="1"></use></g><g><use xlink:href="#a1cg2zBiWV" opacity="1" fill="#ead962" fill-opacity="1"></use></g><g><use xlink:href="#aJ7nT1MWQ" opacity="1" fill="#ead962" fill-opacity="1"></use></g><g><use xlink:href="#a7MwzE4Vvi" opacity="1" fill="#ead962" fill-opacity="1"></use></g><g><use xlink:href="#b2yOK23SKy" opacity="1" fill="#ead462" fill-opacity="1"></use></g><g><use xlink:href="#a6lYIGW1SM" opacity="1" fill="#ead462" fill-opacity="1"></use></g><g><use xlink:href="#h23JxcIhiV" opacity="1" fill="#ead462" fill-opacity="1"></use></g><g><use xlink:href="#c4VCtoNrJ6" opacity="1" fill="#ead462" fill-opacity="1"></use></g></g></g></svg>