<?xml version="1.0" encoding="UTF-8" standalone="no"?>
<!DOCTYPE svg PUBLIC "-//W3C//DTD SVG 1.1//EN" "http://www.w3.org/Graphics/SVG/1.1/DTD/svg11.dtd">
<svg version="1.1" xmlns="http://www.w3.org/2000/svg" xmlns:xlink="http://www.w3.org/1999/xlink" preserveAspectRatio="xMidYMid meet" viewBox="0 0 640 640" width="640" height="640"><defs><path d="M32.57 101.06C50.55 101.06 65.14 86.26 65.14 68.03C65.14 49.8 50.55 35 32.57 35C14.6 35 0 49.8 0 68.03C0 86.26 14.6 101.06 32.57 101.06Z" id="f5FHIDfADs"></path><path d="M293.76 217.81L288.67 226.64L55.22 91.84L60.33 83.01L293.76 217.81Z" id="atYNY300z"></path><path d="M431.67 297.13L426.58 305.96L344.89 258.79L350 249.96L431.67 297.13Z" id="bQxxyv6Q"></path><path d="M285.53 571.18C285.52 553.2 300.3 538.59 318.53 538.58C336.76 538.55 351.58 553.14 351.6 571.1C351.61 589.08 336.83 603.7 318.6 603.71C300.37 603.74 285.55 589.15 285.53 571.18Z" id="b4A3l5trV8"></path><path d="M323.83 538.57L313.63 538.58L313.34 269.02L323.54 269L323.83 538.57Z" id="cTEV0ZgM4"></path><path d="M351.07 226.65L345.96 217.81L579.42 83.03L584.51 91.86L351.07 226.65Z" id="k9QIpWrBO"></path><path d="M212.08 308.98L206.97 300.15L288.67 253L293.76 261.83L212.08 308.98Z" id="b3d0mMLyuj"></path><path d="M323.82 205.04L313.62 205.04L313.63 110.71L323.83 110.71L323.82 205.04Z" id="a15ooEjOT9"></path><path d="M47.41 403.79C39.22 403.79 32.57 397.4 32.57 389.55C32.57 381.69 39.22 375.31 47.41 375.31C55.59 375.31 62.24 381.69 62.24 389.55C62.24 397.4 55.59 403.79 47.41 403.79Z" id="c4FjyVm0xM"></path><path d="M592.59 403.79C584.41 403.79 577.76 397.4 577.76 389.55C577.76 381.69 584.41 375.31 592.59 375.31C600.78 375.31 607.43 381.69 607.43 389.55C607.43 397.4 600.78 403.79 592.59 403.79Z" id="b3f4k64IkL"></path><path d="M318.72 63.47C310.54 63.47 303.9 57.09 303.9 49.23C303.9 41.38 310.54 35 318.72 35C326.92 35 333.56 41.38 333.56 49.23C333.56 57.09 326.92 63.47 318.72 63.47Z" id="a8HQxks38J"></path><path d="M607.43 101.06C625.4 101.06 640 86.26 640 68.03C640 49.8 625.4 35 607.43 35C589.45 35 574.86 49.8 574.86 68.03C574.86 86.26 589.45 101.06 607.43 101.06Z" id="a1NYXSyh3R"></path></defs><g><g><g><use xlink:href="#f5FHIDfADs" opacity="1" fill="#ead462" fill-opacity="1"></use><g><use xlink:href="#f5FHIDfADs" opacity="1" fill-opacity="0" stroke="#000000" stroke-width="1" stroke-opacity="0"></use></g></g><g><use xlink:href="#atYNY300z" opacity="1" fill="#ead962" fill-opacity="1"></use><g><use xlink:href="#atYNY300z" opacity="1" fill-opacity="0" stroke="#000000" stroke-width="1" stroke-opacity="0"></use></g></g><g><use xlink:href="#bQxxyv6Q" opacity="1" fill="#ead962" fill-opacity="1"></use><g><use xlink:href="#bQxxyv6Q" opacity="1" fill-opacity="0" stroke="#000000" stroke-width="1" stroke-opacity="0"></use></g></g><g><use xlink:href="#b4A3l5trV8" opacity="1" fill="#ead462" fill-opacity="1"></use><g><use xlink:href="#b4A3l5trV8" opacity="1" fill-opacity="0" stroke="#000000" stroke-width="1" stroke-opacity="0"></use></g></g><g><use xlink:href="#cTEV0ZgM4" opacity="1" fill="#ead962" fill-opacity="1"></use><g><use xlink:href="#cTEV0ZgM4" opacity="1" fill-opacity="0" stroke="#000000" stroke-width="1" stroke-opacity="0"></use></g></g><g><use xlink:href="#k9QIpWrBO" opacity="1" fill="#ead962" fill-opacity="1"></use><g><use xlink:href="#k9QIpWrBO" opacity="1" fill-opacity="0" stroke="#000000" stroke-width="1" stroke-opacity="0"></use></g></g><g><use xlink:href="#b3d0mMLyuj" opacity="1" fill="#ead962" fill-opacity="1"></use><g><use xlink:href="#b3d0mMLyuj" opacity="1" fill-opacity="0" stroke="#000000" stroke-width="1" stroke-opacity="0"></use></g></g><g><use xlink:href="#a15ooEjOT9" opacity="1" fill="#ead962" fill-opacity="1"></use><g><use xlink:href="#a15ooEjOT9" opacity="1" fill-opacity="0" stroke="#000000" stroke-width="1" stroke-opacity="0"></use></g></g><g><use xlink:href="#c4FjyVm0xM" opacity="1" fill="#ead462" fill-opacity="1"></use><g><use xlink:href="#c4FjyVm0xM" opacity="1" fill-opacity="0" stroke="#000000" stroke-width="1" stroke-opacity="0"></use></g></g><g><use xlink:href="#b3f4k64IkL" opacity="1" fill="#ead462" fill-opacity="1"></use><g><use xlink:href="#b3f4k64IkL" opacity="1" fill-opacity="0" stroke="#000000" stroke-width="1" stroke-opacity="0"></use></g></g><g><use xlink:href="#a8HQxks38J" opacity="1" fill="#ead462" fill-opacity="1"></use><g><use xlink:href="#a8HQxks38J" opacity="1" fill-opacity="0" stroke="#000000" stroke-width="1" stroke-opacity="0"></use></g></g><g><use xlink:href="#a1NYXSyh3R" opacity="1" fill="#ead462" fill-opacity="1"></use><g><use xlink:href="#a1NYXSyh3R" opacity="1" fill-opacity="0" stroke="#000000" stroke-width="1" stroke-opacity="0"></use></g></g></g></g></svg>